# xmcd
#
# Track frame offsets:
#	150
#	18259
#	33442
#	49796
#	68190
#	74897
#	93493
#	109611
#	125435
#	140566
#	155361
#	176866
#	186982
#
# Disc length: 2762 seconds
#
# Revision: 0
# Processed by: cddbd v1.5.2PL0 Copyright (c) Steve Scherf et al.
# Submitted via: EasyCDDAExtractor 10.0.6.1
#
DISCID=be0ac80d
DTITLE=리사(Lisa) - 3_Featherlight (Mnet-2007)
DYEAR=2007
DGENRE=Ballad
TTITLE0=사랑 앞에 다시 서다.
TTITLE1=그려 봅니다.
TTITLE2=미워하지 말아요.
TTITLE3=그래 그럼
TTITLE4=My Melody
TTITLE5=Do Me Something Sweet
TTITLE6=너만 사랑할께(I Just Wanna Love You)
TTITLE7=내가 만날 사람
TTITLE8=매일 난
TTITLE9=First Time
TTITLE10=Miss You
TTITLE11=Featherlight
TTITLE12=시작보다 끝이 아름다운 사랑 [Bonus Track]
EXTD=
EXTT0=
EXTT1=
EXTT2=
EXTT3=
EXTT4=
EXTT5=
EXTT6=
EXTT7=
EXTT8=
EXTT9=
EXTT10=
EXTT11=
EXTT12=
PLAYORDER=
